<?xml version="1.0" encoding="UTF-8" standalone="no"?>
<!-- Created with Inkscape (http://www.inkscape.org/) -->

<svg
   width="180.31711mm"
   height="42.568455mm"
   viewBox="0 0 180.31711 42.568455"
   version="1.1"
   id="svg1"
   xml:space="preserve"
   xmlns="http://www.w3.org/2000/svg"
   xmlns:svg="http://www.w3.org/2000/svg"><defs
     id="defs1"><mask
       maskUnits="userSpaceOnUse"
       x="0"
       y="0"
       width="1"
       height="1"
       id="mask8"><g
         id="g12"
         clip-path="url(#clipPath12)"><g
           mask="url(#mask9)"
           clip-path="url(#clipPath10)"
           id="g11"><path
             d="m 651.609,431.867 c 0,-3.392 -19.128,-6.142 -42.722,-6.142 -23.596,0 -42.724,2.75 -42.724,6.142 0,3.392 19.128,6.142 42.724,6.142 23.594,0 42.722,-2.75 42.722,-6.142"
             transform="matrix(1.3333333,0,0,-1.3333333,0,793.70667)"
             style="fill:url(#radialGradient10);stroke:none"
             id="path11" /></g></g></mask><mask
       maskUnits="userSpaceOnUse"
       x="0"
       y="0"
       width="1"
       height="1"
       id="mask9"><g
         id="g9"
         clip-path="url(#clipPath9)" /></mask><clipPath
       clipPathUnits="userSpaceOnUse"
       id="clipPath9"><path
         d="M -24153,24871.3 H 8613 V -7894.72 h -32766 z"
         transform="matrix(1.3333333,0,0,-1.3333333,0,793.70667)"
         id="path9" /></clipPath><radialGradient
       fx="0"
       fy="0"
       cx="0"
       cy="0"
       r="1"
       gradientUnits="userSpaceOnUse"
       gradientTransform="matrix(42.719006,0,0,-6.1429935,608.88672,431.86719)"
       spreadMethod="pad"
       id="radialGradient10"><stop
         style="stop-opacity:1;stop-color:#918f90"
         offset="0"
         id="stop9" /><stop
         style="stop-opacity:1;stop-color:#231f20"
         offset="1"
         id="stop10" /></radialGradient><clipPath
       clipPathUnits="userSpaceOnUse"
       id="clipPath10"><path
         d="m 651.609,431.867 c 0,-3.392 -19.128,-6.142 -42.722,-6.142 -23.596,0 -42.724,2.75 -42.724,6.142 0,3.392 19.128,6.142 42.724,6.142 23.594,0 42.722,-2.75 42.722,-6.142"
         transform="matrix(1.3333333,0,0,-1.3333333,0,793.70667)"
         id="path10" /></clipPath><clipPath
       clipPathUnits="userSpaceOnUse"
       id="clipPath12"><path
         d="M 566.163,438.009 H 651.61 V 425.724 H 566.163 Z"
         transform="matrix(1.3333333,0,0,-1.3333333,0,793.70667)"
         id="path12" /></clipPath><radialGradient
       fx="0"
       fy="0"
       cx="0"
       cy="0"
       r="1"
       gradientUnits="userSpaceOnUse"
       gradientTransform="matrix(42.719006,0,0,-6.1429935,608.88647,431.8667)"
       spreadMethod="pad"
       id="radialGradient13"><stop
         style="stop-opacity:1;stop-color:#231f20"
         offset="0"
         id="stop12" /><stop
         style="stop-opacity:1;stop-color:#ffffff"
         offset="1"
         id="stop13" /></radialGradient><clipPath
       clipPathUnits="userSpaceOnUse"
       id="clipPath14"><path
         d="M 0,595.28 H 841.89 V 0 H 0 Z"
         transform="matrix(1.3333333,0,0,-1.3333333,0,793.70667)"
         id="path14" /></clipPath><clipPath
       clipPathUnits="userSpaceOnUse"
       id="clipPath16"><path
         d="M 0,595.28 H 841.89 V 0 H 0 Z"
         transform="translate(-661.54792,-568.02171)"
         id="path16" /></clipPath><clipPath
       clipPathUnits="userSpaceOnUse"
       id="clipPath18"><path
         d="M 0,595.28 H 841.89 V 0 H 0 Z"
         transform="translate(-572.93651,-520.10331)"
         id="path18" /></clipPath><clipPath
       clipPathUnits="userSpaceOnUse"
       id="clipPath20"><path
         d="M 0,595.28 H 841.89 V 0 H 0 Z"
         transform="translate(-590.03122,-504.88302)"
         id="path20" /></clipPath><clipPath
       clipPathUnits="userSpaceOnUse"
       id="clipPath22"><path
         d="M 0,595.28 H 841.89 V 0 H 0 Z"
         transform="translate(-604.77542,-501.98211)"
         id="path22" /></clipPath><clipPath
       clipPathUnits="userSpaceOnUse"
       id="clipPath24"><path
         d="M 0,595.28 H 841.89 V 0 H 0 Z"
         transform="translate(-586.13092,-524.03741)"
         id="path24" /></clipPath><clipPath
       clipPathUnits="userSpaceOnUse"
       id="clipPath26"><path
         d="M 0,595.28 H 841.89 V 0 H 0 Z"
         transform="translate(-599.03711,-537.56811)"
         id="path26" /></clipPath><clipPath
       clipPathUnits="userSpaceOnUse"
       id="clipPath28"><path
         d="M 0,595.28 H 841.89 V 0 H 0 Z"
         transform="translate(-618.71392,-513.81321)"
         id="path28" /></clipPath><clipPath
       clipPathUnits="userSpaceOnUse"
       id="clipPath30"><path
         d="M 0,595.28 H 841.89 V 0 H 0 Z"
         transform="translate(-627.42382,-518.11062)"
         id="path30" /></clipPath></defs><g
     id="layer-MC0"
     transform="matrix(0.26458333,0,0,0.26458334,-54.373883,-37.643179)"><g
       id="g5"><g
         id="g4"
         transform="translate(-14.258821,106.14903)"><g
           mask="url(#mask8)"
           id="g13"
           clip-path="url(#clipPath14)"
           transform="translate(15.843136,-104.56471)"><path
             d="m 651.609,431.867 c 0,-3.393 -19.128,-6.143 -42.722,-6.143 -23.596,0 -42.724,2.75 -42.724,6.143 0,3.392 19.128,6.142 42.724,6.142 23.594,0 42.722,-2.75 42.722,-6.142"
             transform="matrix(1.3333333,0,0,-1.3333333,0,793.70667)"
             style="fill:url(#radialGradient13);stroke:none"
             opacity="1"
             id="path13" /></g><path
           id="path15"
           d="m 0,0 c -31.6,0.013 -63.199,0.004 -94.799,0.012 -1.207,10e-4 -2.413,0.1 -3.62,0.153 -3.025,-0.06 -6.053,-0.082 -9.077,-0.185 -9.478,-0.321 -16.782,-10.144 -13.025,-18.814 4.722,-10.901 12.991,-18.61 24.826,-21.791 3.283,-0.881 6.414,-0.15 9.326,1.53 9.532,5.5 19.03,11.063 28.615,16.47 1.949,1.099 1.955,1.996 0.894,3.74 -0.703,1.156 -2.821,2.512 -0.72,4.078 1.814,1.354 3.577,0.373 4.803,-1.092 1.778,-2.126 3.404,-2.19 5.631,-0.598 2.205,1.577 4.679,2.789 7.083,4.074 6.479,3.463 12.698,2.972 18.343,-1.718 6.328,-5.255 10.107,-11.999 10.764,-20.297 0.504,-6.361 -2.252,-11.157 -7.494,-14.557 -2.707,-1.756 -5.519,-3.367 -8.364,-4.892 -1.608,-0.863 -2.212,-1.867 -1.562,-3.646 0.305,-0.835 0.347,-1.779 0.428,-2.68 0.148,-1.627 -0.609,-2.806 -2.136,-3.239 -1.537,-0.434 -1.881,1.057 -2.224,1.968 -1.176,3.133 -2.75,2.977 -5.362,1.402 -8.559,-5.163 -17.183,-10.231 -25.957,-15.015 -5.911,-3.223 -8.424,-8.164 -8.684,-14.548 -0.333,-8.165 1.676,-15.82 5.438,-23.018 2.669,-5.108 7.044,-7.741 12.745,-7.836 5.59,-0.092 9.88,2.367 12.715,7.293 8.56,14.879 17.15,29.742 25.743,44.602 0.65,1.124 1.421,2.18 2.135,3.268 0.594,1.159 1.138,2.345 1.787,3.472 7.954,13.814 15.914,27.625 23.894,41.424 1.945,3.362 2.892,6.866 1.814,10.719 C 12.212,-3.472 7.268,-0.003 0,0"
           style="fill:#23a0e1;fill-opacity:1;fill-rule:nonzero;stroke:none"
           transform="matrix(1.3333333,0,0,-1.3333333,882.06387,36.3444)"
           clip-path="url(#clipPath16)" /><path
           id="path17"
           d="m 0,0 v 0 l -0.014,-0.014 c 0.004,-10e-4 0.007,-10e-4 0.011,-0.002 0.001,0.003 0.001,0.007 0.002,0.01 C -0.001,-0.004 0,-0.002 0,0"
           style="fill:#23a0e1;fill-opacity:1;fill-rule:nonzero;stroke:none"
           transform="matrix(1.3333333,0,0,-1.3333333,763.91533,100.2356)"
           clip-path="url(#clipPath18)" /><path
           id="path19"
           d="m 0,0 c -3.223,3.424 -5.486,7.423 -6.921,11.903 -0.334,1.044 -0.703,2.05 -2.131,2.201 -2.682,0.285 -5.35,0.722 -8.024,1.097 -0.007,10e-4 -0.015,0.003 -0.022,0.004 -0.001,-0.003 -0.001,-0.006 -0.002,-0.008 -2.009,-8.222 3.229,-19.488 11.252,-24.189 3.11,-1.822 3.586,-1.65 4.898,1.778 0.467,1.221 0.864,2.475 1.42,3.654 C 1.096,-2.229 1.07,-1.137 0,0"
           style="fill:#23a0e1;fill-opacity:1;fill-rule:nonzero;stroke:none"
           transform="matrix(1.3333333,0,0,-1.3333333,786.70827,120.52933)"
           clip-path="url(#clipPath20)" /><path
           id="path21"
           d="M 0,0 C 1.899,1.002 2.324,1.914 1.233,3.948 -0.003,6.254 -1.185,5.285 -2.597,4.453 -4.066,3.588 -5.51,2.656 -7.05,1.935 -10.414,0.362 -10.886,-2.541 -11.02,-6.254 -7.102,-4.014 -3.606,-1.902 0,0"
           style="fill:#23a0e1;fill-opacity:1;fill-rule:nonzero;stroke:none"
           transform="matrix(1.3333333,0,0,-1.3333333,806.3672,124.3972)"
           clip-path="url(#clipPath22)" /><path
           id="path23"
           d="M 0,0 C 1.603,1.17 3.479,1.966 5.232,2.93 8.062,5.166 5.354,6.26 4.252,7.685 -0.318,6.589 -3.871,3.558 -7.813,1.279 -8.719,0.755 -8.646,0.116 -7.421,-0.293 -4.88,-1.141 -2.492,-1.82 0,0"
           style="fill:#23a0e1;fill-opacity:1;fill-rule:nonzero;stroke:none"
           transform="matrix(1.3333333,0,0,-1.3333333,781.50787,94.990133)"
           clip-path="url(#clipPath24)" /><path
           id="path25"
           d="m 0,0 c -1.169,-0.703 -2.339,-1.407 -3.508,-2.11 -0.423,-0.254 -0.856,-0.518 -1.147,-0.916 -1.007,-1.375 0.18,-4.081 1.663,-4.318 1.271,-0.202 4.306,2.47 5.257,3.223 0.861,0.683 7.311,8.7 7.086,8.734 C 8.072,4.809 6.845,4.117 5.737,3.45 3.825,2.3 1.912,1.15 0,0"
           style="fill:#23a0e1;fill-opacity:1;fill-rule:nonzero;stroke:none"
           transform="matrix(1.3333333,0,0,-1.3333333,798.71613,76.9492)"
           clip-path="url(#clipPath26)" /><path
           id="path27"
           d="M 0,0 C -3.342,-0.565 -6.587,-1.704 -9.539,-3.368 -9.892,-3.567 -10.25,-3.783 -10.481,-4.115 -11.922,-6.188 -8.66,-8.7 -6.745,-7.588 -2.804,-5.3 1.139,-3.011 5.08,-0.723 5.499,-0.48 5.982,-0.002 5.712,0.399 3.801,0.455 1.885,0.319 0,0"
           style="fill:#23a0e1;fill-opacity:1;fill-rule:nonzero;stroke:none"
           transform="matrix(1.3333333,0,0,-1.3333333,824.95187,108.6224)"
           clip-path="url(#clipPath28)" /><path
           id="path29"
           d="M 0,0 C 0.095,0.012 0.186,0.027 0.272,0.044 1.592,0.302 1.967,1.095 1.601,2.512 1.125,4.354 0.816,6.239 0.436,8.105 -1.588,14.207 -5.22,19.256 -9.775,23.701 c -1.361,0.208 -2.111,2.758 -3.482,1.627 -1.409,-1.161 -2.612,-2.548 -3.715,-4.023 -0.612,-0.82 -1.196,-1.665 -1.761,-2.521 -0.206,-0.312 -0.412,-0.625 -0.615,-0.939 -0.532,-0.82 0.268,-1.498 0.697,-2.158 1.698,-2.619 3.656,-5.079 4.872,-7.992 0.01,-0.015 0.021,-0.031 0.031,-0.047 0.476,-0.738 0.998,-1.452 1.413,-2.224 0.663,-1.233 1.21,-2.249 1.704,-3.085 2.368,-4.007 3.495,-3.787 10.042,-2.468 C -0.392,-0.089 -0.198,-0.026 0,0"
           style="fill:#23a0e1;fill-opacity:1;fill-rule:nonzero;stroke:none"
           transform="matrix(1.3333333,0,0,-1.3333333,836.56507,102.89253)"
           clip-path="url(#clipPath30)" /></g><g
         id="g30"
         aria-label="YourMeet&amp;GreetService"
         transform="matrix(1.3333333,0,0,1.3333333,204.33761,242.97802)"><path
           id="path31"
           d="M 0.87748594,-30.738958 H 5.7290484 l 8.8359376,14.777344 8.824219,-14.777344 h 4.875 L 16.650923,-12.387395 V -6.765625e-4 H 12.490767 V -12.387395 Z m 13.74609406,0 z m 18.471679,28.3125002 c 2.490235,0 4.201172,-0.9433594 5.132813,-2.8359375 0.928711,-1.8896485 1.394531,-3.9902344 1.394531,-6.3046877 0,-2.091797 -0.336914,-3.796875 -1.007812,-5.109375 -1.063477,-2.0625 -2.891602,-3.09375 -5.484375,-3.09375 -2.296875,0 -3.969727,0.878906 -5.015625,2.636719 -1.048828,1.757812 -1.570313,3.875976 -1.570313,6.351562 0,2.3906254 0.521485,4.3828129 1.570313,5.9765629 1.045898,1.5878907 2.707031,2.3789063 4.980468,2.3789063 z m 0.140625,-20.6367192 c 2.888672,0 5.332032,0.966797 7.324219,2.894532 1.992188,1.921875 2.988281,4.754882 2.988281,8.496093 0,3.6093754 -0.878906,6.594727 -2.636718,8.9531254 -1.757813,2.36132816 -4.485352,3.53906254 -8.179688,3.53906254 -3.079101,0 -5.52832,-1.04296875 -7.347656,-3.12890624 -1.813477,-2.0859375 -2.71875,-4.8867188 -2.71875,-8.4023437 0,-3.764649 0.955078,-6.764649 2.871094,-9 1.913086,-2.232422 4.479492,-3.351563 7.699218,-3.351563 z m -0.128906,0.105469 z m 15.46582,0.550781 v 14.8710942 c 0,1.1484375 0.181641,2.0830078 0.550782,2.8007812 0.662109,1.3447266 1.910156,2.015625 3.738281,2.015625 2.625,0 4.40918,-1.171875 5.355469,-3.515625 0.515625,-1.2568359 0.773437,-2.9794922 0.773437,-5.1679684 v -11.003907 h 3.773438 V -6.765625e-4 h -3.5625 L 59.24858,-3.3053641 c -0.492188,0.8525391 -1.101563,1.5703125 -1.828125,2.15625 -1.429688,1.17187504 -3.172852,1.75781254 -5.226563,1.75781254 -3.196289,0 -5.373047,-1.06640625 -6.527344,-3.19921874 -0.626953,-1.1484375 -0.9375,-2.6748047 -0.9375,-4.5820313 V -22.406927 Z m 5.167969,-0.550781 z m 11.789063,0.550781 h 3.574218 v 3.867188 c 0.28711,-0.755859 1.001954,-1.675781 2.144532,-2.753906 1.148437,-1.078125 2.466797,-1.617188 3.960937,-1.617188 0.07031,0 0.1875,0.0088 0.351563,0.02344 0.169922,0.0088 0.459961,0.03516 0.867187,0.08203 v 3.972656 c -0.228515,-0.03809 -0.433594,-0.06445 -0.621094,-0.08203 -0.1875,-0.01465 -0.392578,-0.02344 -0.609375,-0.02344 -1.898437,0 -3.360351,0.609375 -4.382812,1.828125 -1.016602,1.21875 -1.523438,2.625 -1.523438,4.21875 V -6.765625e-4 H 65.52983 Z m 0,0"
           style="fill:#231f20;fill-opacity:1;fill-rule:nonzero;stroke:none" /><path
           id="path32"
           d="m 97.422408,-30.844427 h 9.269532 V -6.765625e-4 h -6 V -20.860052 c 0,-0.600586 0.003,-1.441406 0.0117,-2.519531 0.0147,-1.083984 0.0234,-1.921875 0.0234,-2.507812 L 94.891158,-6.765625e-4 H 88.633345 L 82.844283,-25.887395 c 0,0.585937 0.0029,1.423828 0.01172,2.507812 0.01465,1.078125 0.02344,1.918945 0.02344,2.519531 V -6.765625e-4 h -6 V -30.844427 h 9.375 l 5.601563,24.2578129 z m 20.422852,12.339844 c -1.37695,0 -2.44629,0.433594 -3.21094,1.300781 -0.75879,0.867188 -1.23633,2.039063 -1.42969,3.515625 h 9.26954 c -0.10254,-1.576171 -0.58301,-2.771484 -1.44141,-3.585937 -0.85254,-0.820313 -1.91602,-1.230469 -3.1875,-1.230469 z m 0,-4.910156 c 1.89844,0 3.60352,0.357422 5.12109,1.066406 1.52344,0.711914 2.78028,1.833985 3.77344,3.363281 0.89063,1.359375 1.46777,2.929688 1.73438,4.710938 0.15527,1.048828 0.21679,2.554687 0.1875,4.5234374 h -15.60938 c 0.085,2.2910157 0.80274,3.8964844 2.15625,4.8164063 0.82617,0.571289 1.81934,0.8554687 2.97656,0.8554687 1.22461,0 2.22071,-0.3457031 2.98828,-1.0429687 0.42188,-0.3808594 0.79102,-0.9052735 1.11329,-1.5703125 h 6.08203 c -0.14942,1.3535156 -0.85254,2.7246094 -2.10938,4.1132812 -1.9541,2.22070316 -4.6875,3.32812504 -8.20312,3.32812504 -2.90039,0 -5.45801,-0.93164063 -7.67578,-2.80078124 -2.22071,-1.866211 -3.32813,-4.9101563 -3.32813,-9.1289062 0,-3.943359 0.99902,-6.966797 3,-9.070313 1.99805,-2.109375 4.59668,-3.164062 7.79297,-3.164062 z m 0.42187,0 z m 20.0625,4.910156 c -1.37695,0 -2.44628,0.433594 -3.21093,1.300781 -0.75879,0.867188 -1.23633,2.039063 -1.42969,3.515625 h 9.26953 c -0.10254,-1.576171 -0.58301,-2.771484 -1.44141,-3.585937 -0.85253,-0.820313 -1.91601,-1.230469 -3.1875,-1.230469 z m 0,-4.910156 c 1.89844,0 3.60352,0.357422 5.1211,1.066406 1.52344,0.711914 2.78027,1.833985 3.77344,3.363281 0.89062,1.359375 1.46777,2.929688 1.73437,4.710938 0.15527,1.048828 0.2168,2.554687 0.1875,4.5234374 h -15.60937 c 0.085,2.2910157 0.80273,3.8964844 2.15625,4.8164063 0.82617,0.571289 1.81933,0.8554687 2.97656,0.8554687 1.22461,0 2.2207,-0.3457031 2.98828,-1.0429687 0.42187,-0.3808594 0.79102,-0.9052735 1.11328,-1.5703125 h 6.08203 c -0.14941,1.3535156 -0.85254,2.7246094 -2.10937,4.1132812 -1.9541,2.22070316 -4.6875,3.32812504 -8.20313,3.32812504 -2.90039,0 -5.45801,-0.93164063 -7.67578,-2.80078124 -2.2207,-1.866211 -3.32812,-4.9101563 -3.32812,-9.1289062 0,-3.943359 0.99902,-6.966797 3,-9.070313 1.99804,-2.109375 4.59668,-3.164062 7.79296,-3.164062 z m 0.42188,0 z m 8.71582,5.0625 v -4.242188 h 3.1875 v -6.363281 h 5.89453 v 6.363281 h 3.71484 v 4.242188 h -3.71484 v 12.0585937 c 0,0.9316406 0.11719,1.5117187 0.35156,1.7460937 0.24024,0.2285157 0.97266,0.3398438 2.19141,0.3398438 0.17871,0 0.36914,-0.00293 0.57422,-0.011719 0.20215,-0.00586 0.40137,-0.014648 0.59765,-0.023437 v 4.45312504 l -2.83593,0.10546875 c -2.8125,0.09375 -4.73438,-0.39257813 -5.76563,-1.46484379 -0.67383,-0.6855468 -1.00781,-1.7402343 -1.00781,-3.1640625 V -18.352239 Z m 12.81445,10.2070312 c 0,-1.8515625 0.45996,-3.4365232 1.38282,-4.7578122 0.91992,-1.327149 2.42871,-2.639649 4.52343,-3.9375 l 0.64453,-0.398438 c -0.89062,-1.007812 -1.58203,-2.033203 -2.07421,-3.082031 -0.48633,-1.045899 -0.72657,-2.132813 -0.72657,-3.257813 0,-2.25 0.75293,-4.001953 2.26172,-5.261718 1.50586,-1.265625 3.45996,-1.898438 5.85938,-1.898438 2.18554,0 3.99609,0.644531 5.42578,1.933594 1.42969,1.289062 2.14453,2.938476 2.14453,4.945312 0,1.813477 -0.43066,3.28711 -1.28906,4.417969 -0.86133,1.133789 -2.11817,2.179688 -3.77344,3.140625 l 4.37109,5.402344 c 0.49805,-0.726563 0.88477,-1.514649 1.16016,-2.367188 0.27246,-0.849609 0.41601,-1.749023 0.43359,-2.695312 h 5.29688 c -0.0879,1.869141 -0.53613,3.755859 -1.34766,5.660156 -0.44531,1.0781252 -1.16894,2.2675783 -2.16797,3.5625002 l 5.60157,6.7382812375 h -7.24219 L 178.63335,-2.6139578 c -1.03125,0.9609375 -1.99219,1.67285155 -2.88282,2.13281249 -1.59375,0.8203125 -3.43066,1.23046875 -5.50781,1.23046875 -3.12598,0 -5.56641,-0.91699219 -7.32422,-2.75390624 -1.75781,-1.8427735 -2.63672,-3.890625 -2.63672,-6.140625 z m 9.23438,-15.6445312 c 0,0.556641 0.19336,1.142578 0.58594,1.757812 0.24902,0.398438 0.79101,1.119141 1.6289,2.15625 0.83496,-0.585937 1.43555,-1.081054 1.80469,-1.488281 0.69434,-0.755859 1.04297,-1.573242 1.04297,-2.449219 0,-0.638671 -0.21094,-1.209961 -0.63281,-1.710937 -0.41602,-0.506836 -1.04883,-0.761719 -1.89844,-0.761719 -0.53321,0 -1.02832,0.149414 -1.48828,0.445313 -0.69727,0.430664 -1.04297,1.113281 -1.04297,2.050781 z m -3.29297,15.4570312 c 0,1.0253906 0.41309,1.9628906 1.24219,2.8125 0.83496,0.852539 1.90136,1.2773437 3.19922,1.2773437 0.97558,0 1.89843,-0.2255859 2.76562,-0.6796875 0.87305,-0.4599609 1.58496,-0.9667968 2.13281,-1.5234375 l -5.64843,-6.9843749 c -1.49415,0.984375 -2.48145,1.857422 -2.96485,2.613281 -0.48633,0.75 -0.72656,1.5791017 -0.72656,2.4843752 z m 43.33594,-12.8906252 c -0.48633,-2.100586 -1.67578,-3.568359 -3.57422,-4.40625 -1.06348,-0.459961 -2.24414,-0.691406 -3.53906,-0.691406 -2.48438,0 -4.5293,0.9375 -6.12891,2.8125 -1.59375,1.875 -2.39063,4.696289 -2.39063,8.460937 0,3.796875 0.86133,6.4863286 2.58985,8.0625004 1.73437,1.5703125 3.70312,2.3554688 5.90625,2.3554688 2.16211,0 3.9375,-0.6210938 5.32031,-1.8632813 1.38281,-1.2480468 2.23242,-2.8857422 2.55469,-4.9101559 h -7.13672 v -5.144532 h 12.84375 V -6.765625e-4 h -4.26563 L 211.08256,-3.8561453 c -1.23632,1.4707031 -2.34961,2.5048828 -3.33984,3.10546874 -1.70508,1.04589843 -3.79687,1.5703125 -6.28125,1.5703125 -4.08691,0 -7.43555,-1.41796875 -10.04297,-4.25390624 -2.71875,-2.8417969 -4.07812,-6.7324217 -4.07812,-11.6718747 0,-4.992188 1.37402,-8.994141 4.125,-12.011719 2.74218,-3.014649 6.375,-4.523438 10.89843,-4.523438 3.91993,0 7.06934,0.996094 9.44532,2.988282 2.38183,1.986328 3.74414,4.461914 4.08984,7.429687 z m -7.21875,-10.417969 z m 28.3916,8.285157 c 0.1084,0 0.20215,0.0059 0.28125,0.01172 0.0762,0.0088 0.24609,0.02051 0.5039,0.03516 v 6.105468 c -0.375,-0.03809 -0.71191,-0.06445 -1.00781,-0.08203 -0.29004,-0.01465 -0.52441,-0.02344 -0.70312,-0.02344 -2.39942,0 -4.00782,0.782226 -4.82813,2.34375 -0.46289,0.884765 -0.6914,2.238281 -0.6914,4.066406 V -6.765625e-4 h -6.01172 V -22.805364 h 5.69531 v 3.972656 c 0.91992,-1.523437 1.72266,-2.560547 2.40234,-3.117187 1.11621,-0.9375 2.56934,-1.40625 4.35938,-1.40625 z m 9.92871,4.851562 c -1.37695,0 -2.44629,0.433594 -3.21094,1.300781 -0.75879,0.867188 -1.23633,2.039063 -1.42969,3.515625 h 9.26954 c -0.10254,-1.576171 -0.58301,-2.771484 -1.44141,-3.585937 -0.85254,-0.820313 -1.91602,-1.230469 -3.1875,-1.230469 z m 0,-4.910156 c 1.89844,0 3.60351,0.357422 5.12109,1.066406 1.52344,0.711914 2.78028,1.833985 3.77344,3.363281 0.89063,1.359375 1.46777,2.929688 1.73438,4.710938 0.15527,1.048828 0.21679,2.554687 0.1875,4.5234374 h -15.60938 c 0.085,2.2910157 0.80273,3.8964844 2.15625,4.8164063 0.82617,0.571289 1.81934,0.8554687 2.97656,0.8554687 1.22461,0 2.22071,-0.3457031 2.98828,-1.0429687 0.42188,-0.3808594 0.79102,-0.9052735 1.11329,-1.5703125 h 6.08203 c -0.14942,1.3535156 -0.85254,2.7246094 -2.10938,4.1132812 -1.9541,2.22070316 -4.6875,3.32812504 -8.20312,3.32812504 -2.90039,0 -5.45801,-0.93164063 -7.67578,-2.80078124 -2.22071,-1.866211 -3.32813,-4.9101563 -3.32813,-9.1289062 0,-3.943359 0.99902,-6.966797 3,-9.070313 1.99805,-2.109375 4.59668,-3.164062 7.79297,-3.164062 z m 0.42187,0 z m 20.0625,4.910156 c -1.37695,0 -2.44628,0.433594 -3.21093,1.300781 -0.75879,0.867188 -1.23633,2.039063 -1.42969,3.515625 h 9.26953 c -0.10254,-1.576171 -0.58301,-2.771484 -1.44141,-3.585937 -0.85253,-0.820313 -1.91601,-1.230469 -3.1875,-1.230469 z m 0,-4.910156 c 1.89844,0 3.60352,0.357422 5.1211,1.066406 1.52344,0.711914 2.78027,1.833985 3.77344,3.363281 0.89062,1.359375 1.46777,2.929688 1.73437,4.710938 0.15527,1.048828 0.2168,2.554687 0.1875,4.5234374 H 256.3521 c 0.085,2.2910157 0.80273,3.8964844 2.15625,4.8164063 0.82617,0.571289 1.81933,0.8554687 2.97656,0.8554687 1.22461,0 2.2207,-0.3457031 2.98828,-1.0429687 0.42187,-0.3808594 0.79101,-0.9052735 1.11328,-1.5703125 h 6.08203 c -0.14941,1.3535156 -0.85254,2.7246094 -2.10937,4.1132812 -1.9541,2.22070316 -4.6875,3.32812504 -8.20313,3.32812504 -2.90039,0 -5.45801,-0.93164063 -7.67578,-2.80078124 -2.2207,-1.866211 -3.32812,-4.9101563 -3.32812,-9.1289062 0,-3.943359 0.99902,-6.966797 3,-9.070313 1.99804,-2.109375 4.59668,-3.164062 7.79296,-3.164062 z m 0.42188,0 z m 8.71582,5.0625 v -4.242188 h 3.1875 v -6.363281 h 5.89453 v 6.363281 h 3.71484 v 4.242188 h -3.71484 v 12.0585937 c 0,0.9316406 0.11719,1.5117187 0.35156,1.7460937 0.24024,0.2285157 0.97266,0.3398438 2.19141,0.3398438 0.17871,0 0.36914,-0.00293 0.57422,-0.011719 0.20215,-0.00586 0.40137,-0.014648 0.59765,-0.023437 v 4.45312504 l -2.83593,0.10546875 c -2.8125,0.09375 -4.73438,-0.39257813 -5.76563,-1.46484379 -0.67383,-0.6855468 -1.00781,-1.7402343 -1.00781,-3.1640625 V -18.352239 Z m 0,0"
           style="fill:#231f20;fill-opacity:1;fill-rule:nonzero;stroke:none" /><path
           id="path33"
           d="m 286.76518,-9.9147391 c 0.0937,1.7431641 0.50391,3.1582032 1.23047,4.2421875 1.38281,2.0390625 3.81445,3.0585938 7.30078,3.0585938 1.56152,0 2.98828,-0.2226563 4.27735,-0.6679688 2.47558,-0.8671875 3.71484,-2.4169922 3.71484,-4.6523437 0,-1.6699219 -0.52442,-2.8623047 -1.57031,-3.5742187 -1.05469,-0.694336 -2.71582,-1.300781 -4.98047,-1.816406 l -4.16016,-0.949219 c -2.71875,-0.609375 -4.64648,-1.283203 -5.77734,-2.027344 -1.9541,-1.280273 -2.92969,-3.199219 -2.92969,-5.753906 0,-2.765625 0.95508,-5.030274 2.87109,-6.796875 1.91309,-1.772461 4.62012,-2.660156 8.1211,-2.660156 3.21679,0 5.95312,0.779297 8.20312,2.332031 2.25586,1.555664 3.38672,4.042969 3.38672,7.464844 h -3.91406 c -0.21094,-1.646485 -0.65625,-2.91211 -1.33594,-3.796875 -1.27441,-1.59961 -3.43066,-2.402344 -6.46875,-2.402344 -2.45508,0 -4.21875,0.515625 -5.29687,1.546875 -1.07227,1.03125 -1.60547,2.232422 -1.60547,3.597656 0,1.508789 0.62402,2.610352 1.875,3.304688 0.82617,0.445312 2.68945,1.004882 5.58984,1.675781 l 4.3125,0.984375 c 2.07715,0.477539 3.68262,1.125 4.81641,1.945312 1.95117,1.438477 2.92969,3.524414 2.92969,6.2578129 0,3.4072266 -1.23926,5.8447266 -3.71485,7.3125 -2.47851,1.45898441 -5.35547,2.19140629 -8.63672,2.19140629 -3.82031,0 -6.81445,-0.97558594 -8.97656,-2.92968749 -2.16504,-1.9365235 -3.22266,-4.5644531 -3.17578,-7.8867188 z m 8.41406,-21.6679689 z m 23.05957,8.671875 c 1.59375,0 3.13477,0.375 4.62891,1.125 1.49121,0.744141 2.62793,1.708008 3.41016,2.894531 0.75,1.125 1.24804,2.44336 1.5,3.949219 0.22558,1.03125 0.33984,2.677735 0.33984,4.933594 h -16.42969 c 0.0703,2.2822265 0.60352,4.1103515 1.60547,5.4843749 1.00781,1.3681641 2.56641,2.0507813 4.67578,2.0507813 1.96875,0 3.53907,-0.647461 4.71094,-1.9453125 0.66211,-0.75 1.13672,-1.6201172 1.41797,-2.6132813 h 3.70312 c -0.0937,0.8203125 -0.41894,1.7402344 -0.97265,2.7539063 -0.54785,1.0078125 -1.16602,1.8339844 -1.85156,2.4726562 -1.14258,1.11914066 -2.55469,1.86914066 -4.24219,2.26171879 -0.90821,0.22558593 -1.9336,0.33984375 -3.08203,0.33984375 -2.78907,0 -5.15332,-1.01367188 -7.08985,-3.04687504 -1.93945,-2.0302734 -2.90625,-4.875 -2.90625,-8.5312504 0,-3.591796 0.97559,-6.509765 2.92969,-8.753906 1.95117,-2.25 4.50293,-3.375 7.65234,-3.375 z m 6.01172,9.914063 c -0.1582,-1.631836 -0.51269,-2.935547 -1.0664,-3.914063 -1.04004,-1.810547 -2.76563,-2.71875 -5.17969,-2.71875 -1.72852,0 -3.17578,0.626953 -4.34766,1.875 -1.17187,1.250977 -1.79297,2.835938 -1.86328,4.757813 z m -6.36328,-9.960938 z m 11.74219,0.550781 h 3.57422 v 3.867188 c 0.28711,-0.755859 1.00195,-1.675781 2.14453,-2.753906 1.14844,-1.078125 2.4668,-1.617188 3.96094,-1.617188 0.0703,0 0.1875,0.0088 0.35156,0.02344 0.16992,0.0088 0.45996,0.03516 0.86719,0.08203 v 3.972656 c -0.22852,-0.03809 -0.4336,-0.06445 -0.6211,-0.08203 -0.1875,-0.01465 -0.39258,-0.02344 -0.60937,-0.02344 -1.89844,0 -3.36035,0.609375 -4.38281,1.828125 -1.01661,1.21875 -1.52344,2.625 -1.52344,4.21875 V -6.765625e-4 h -3.76172 z m 12.79101,0 5.98829,18.2460942 6.24609,-18.2460942 h 4.125 l -8.44922,22.4062504375 h -4.01953 L 338.04936,-22.406927 Z m 16.3711,0.105469 h 3.82031 V -6.765625e-4 h -3.82031 z m 0,-8.4375 h 3.82031 v 4.265625 h -3.82031 z m 14.93555,7.675781 c 2.52246,0 4.57617,0.615235 6.16406,1.839844 1.58496,1.227539 2.53711,3.339844 2.85937,6.339844 h -3.66797 c -0.21972,-1.374024 -0.72656,-2.519531 -1.52343,-3.433594 -0.79688,-0.914062 -2.07422,-1.371094 -3.83203,-1.371094 -2.39942,0 -4.11329,1.171875 -5.14454,3.515625 -0.67382,1.517579 -1.00781,3.392579 -1.00781,5.625 0,2.2500004 0.47168,4.1425786 1.41797,5.6718754 0.95215,1.5322266 2.44922,2.296875 4.48828,2.296875 1.56153,0 2.80078,-0.4746093 3.71485,-1.4296875 0.91406,-0.9521484 1.54101,-2.2617187 1.88671,-3.9257812 h 3.66797 c -0.42187,2.9765625 -1.4707,5.1533203 -3.14062,6.5273437 -1.67285,1.3681641 -3.81446,2.05078129 -6.42188,2.05078129 -2.92968,0 -5.2705,-1.06933594 -7.01953,-3.21093749 -1.74316,-2.1386719 -2.61328,-4.8164063 -2.61328,-8.0273442 0,-3.928711 0.95508,-6.987304 2.87109,-9.175781 1.91309,-2.194336 4.34766,-3.292969 7.30079,-3.292969 z m -0.58594,0.105469 z m 19.49121,0.04687 c 1.59375,0 3.13476,0.375 4.62891,1.125 1.49121,0.744141 2.62792,1.708008 3.41015,2.894531 0.75,1.125 1.24805,2.44336 1.5,3.949219 0.22559,1.03125 0.33985,2.677735 0.33985,4.933594 h -16.42969 c 0.0703,2.2822265 0.60351,4.1103515 1.60547,5.4843749 1.00781,1.3681641 2.5664,2.0507813 4.67578,2.0507813 1.96875,0 3.53906,-0.647461 4.71094,-1.9453125 0.6621,-0.75 1.13671,-1.6201172 1.41796,-2.6132813 h 3.70313 c -0.0937,0.8203125 -0.41895,1.7402344 -0.97266,2.7539063 -0.54785,1.0078125 -1.16601,1.8339844 -1.85156,2.4726562 -1.14258,1.11914066 -2.55469,1.86914066 -4.24219,2.26171879 -0.9082,0.22558593 -1.93359,0.33984375 -3.08203,0.33984375 -2.78906,0 -5.15332,-1.01367188 -7.08984,-3.04687504 -1.93946,-2.0302734 -2.90625,-4.875 -2.90625,-8.5312504 0,-3.591796 0.97558,-6.509765 2.92969,-8.753906 1.95117,-2.25 4.50292,-3.375 7.65234,-3.375 z m 6.01172,9.914063 c -0.15821,-1.631836 -0.5127,-2.935547 -1.06641,-3.914063 -1.04004,-1.810547 -2.76562,-2.71875 -5.17969,-2.71875 -1.72851,0 -3.17578,0.626953 -4.34765,1.875 -1.17188,1.250977 -1.79297,2.835938 -1.86328,4.757813 z m -6.36328,-9.960938 z m 0,0"
           style="fill:#231f20;fill-opacity:1;fill-rule:nonzero;stroke:none" /></g></g></g></svg>
