<?xml version="1.0" encoding="UTF-8" standalone="no"?>
<!-- Created with Inkscape (http://www.inkscape.org/) -->

<svg
   width="47.9562mm"
   height="42.568455mm"
   viewBox="0 0 47.956199 42.568455"
   version="1.1"
   id="svg1"
   xml:space="preserve"
   xmlns="http://www.w3.org/2000/svg"
   xmlns:svg="http://www.w3.org/2000/svg"><defs
     id="defs1"><clipPath
       clipPathUnits="userSpaceOnUse"
       id="clipPath16"><path
         d="M 0,595.28 H 841.89 V 0 H 0 Z"
         transform="translate(-661.54792,-568.02171)"
         id="path16" /></clipPath><clipPath
       clipPathUnits="userSpaceOnUse"
       id="clipPath18"><path
         d="M 0,595.28 H 841.89 V 0 H 0 Z"
         transform="translate(-572.93651,-520.10331)"
         id="path18" /></clipPath><clipPath
       clipPathUnits="userSpaceOnUse"
       id="clipPath20"><path
         d="M 0,595.28 H 841.89 V 0 H 0 Z"
         transform="translate(-590.03122,-504.88302)"
         id="path20" /></clipPath><clipPath
       clipPathUnits="userSpaceOnUse"
       id="clipPath22"><path
         d="M 0,595.28 H 841.89 V 0 H 0 Z"
         transform="translate(-604.77542,-501.98211)"
         id="path22" /></clipPath><clipPath
       clipPathUnits="userSpaceOnUse"
       id="clipPath24"><path
         d="M 0,595.28 H 841.89 V 0 H 0 Z"
         transform="translate(-586.13092,-524.03741)"
         id="path24" /></clipPath><clipPath
       clipPathUnits="userSpaceOnUse"
       id="clipPath26"><path
         d="M 0,595.28 H 841.89 V 0 H 0 Z"
         transform="translate(-599.03711,-537.56811)"
         id="path26" /></clipPath><clipPath
       clipPathUnits="userSpaceOnUse"
       id="clipPath28"><path
         d="M 0,595.28 H 841.89 V 0 H 0 Z"
         transform="translate(-618.71392,-513.81321)"
         id="path28" /></clipPath><clipPath
       clipPathUnits="userSpaceOnUse"
       id="clipPath30"><path
         d="M 0,595.28 H 841.89 V 0 H 0 Z"
         transform="translate(-627.42382,-518.11062)"
         id="path30" /></clipPath></defs><g
     id="layer-MC0"
     transform="matrix(0.26458333,0,0,0.26458334,-190.50745,-9.5579144)"><g
       id="g2"><path
         id="path15"
         d="m 0,0 c -31.6,0.013 -63.199,0.004 -94.799,0.012 -1.207,10e-4 -2.413,0.1 -3.62,0.153 -3.025,-0.06 -6.053,-0.082 -9.077,-0.185 -9.478,-0.321 -16.782,-10.144 -13.025,-18.814 4.722,-10.901 12.991,-18.61 24.826,-21.791 3.283,-0.881 6.414,-0.15 9.326,1.53 9.532,5.5 19.03,11.063 28.615,16.47 1.949,1.099 1.955,1.996 0.894,3.74 -0.703,1.156 -2.821,2.512 -0.72,4.078 1.814,1.354 3.577,0.373 4.803,-1.092 1.778,-2.126 3.404,-2.19 5.631,-0.598 2.205,1.577 4.679,2.789 7.083,4.074 6.479,3.463 12.698,2.972 18.343,-1.718 6.328,-5.255 10.107,-11.999 10.764,-20.297 0.504,-6.361 -2.252,-11.157 -7.494,-14.557 -2.707,-1.756 -5.519,-3.367 -8.364,-4.892 -1.608,-0.863 -2.212,-1.867 -1.562,-3.646 0.305,-0.835 0.347,-1.779 0.428,-2.68 0.148,-1.627 -0.609,-2.806 -2.136,-3.239 -1.537,-0.434 -1.881,1.057 -2.224,1.968 -1.176,3.133 -2.75,2.977 -5.362,1.402 -8.559,-5.163 -17.183,-10.231 -25.957,-15.015 -5.911,-3.223 -8.424,-8.164 -8.684,-14.548 -0.333,-8.165 1.676,-15.82 5.438,-23.018 2.669,-5.108 7.044,-7.741 12.745,-7.836 5.59,-0.092 9.88,2.367 12.715,7.293 8.56,14.879 17.15,29.742 25.743,44.602 0.65,1.124 1.421,2.18 2.135,3.268 0.594,1.159 1.138,2.345 1.787,3.472 7.954,13.814 15.914,27.625 23.894,41.424 1.945,3.362 2.892,6.866 1.814,10.719 C 12.212,-3.472 7.268,-0.003 0,0"
         style="fill:#23a0e1;fill-opacity:1;fill-rule:nonzero;stroke:none"
         transform="matrix(1.3333333,0,0,-1.3333333,882.06387,36.3444)"
         clip-path="url(#clipPath16)" /><path
         id="path17"
         d="m 0,0 v 0 l -0.014,-0.014 c 0.004,-10e-4 0.007,-10e-4 0.011,-0.002 0.001,0.003 0.001,0.007 0.002,0.01 C -0.001,-0.004 0,-0.002 0,0"
         style="fill:#23a0e1;fill-opacity:1;fill-rule:nonzero;stroke:none"
         transform="matrix(1.3333333,0,0,-1.3333333,763.91533,100.2356)"
         clip-path="url(#clipPath18)" /><path
         id="path19"
         d="m 0,0 c -3.223,3.424 -5.486,7.423 -6.921,11.903 -0.334,1.044 -0.703,2.05 -2.131,2.201 -2.682,0.285 -5.35,0.722 -8.024,1.097 -0.007,10e-4 -0.015,0.003 -0.022,0.004 -0.001,-0.003 -0.001,-0.006 -0.002,-0.008 -2.009,-8.222 3.229,-19.488 11.252,-24.189 3.11,-1.822 3.586,-1.65 4.898,1.778 0.467,1.221 0.864,2.475 1.42,3.654 C 1.096,-2.229 1.07,-1.137 0,0"
         style="fill:#23a0e1;fill-opacity:1;fill-rule:nonzero;stroke:none"
         transform="matrix(1.3333333,0,0,-1.3333333,786.70827,120.52933)"
         clip-path="url(#clipPath20)" /><path
         id="path21"
         d="M 0,0 C 1.899,1.002 2.324,1.914 1.233,3.948 -0.003,6.254 -1.185,5.285 -2.597,4.453 -4.066,3.588 -5.51,2.656 -7.05,1.935 -10.414,0.362 -10.886,-2.541 -11.02,-6.254 -7.102,-4.014 -3.606,-1.902 0,0"
         style="fill:#23a0e1;fill-opacity:1;fill-rule:nonzero;stroke:none"
         transform="matrix(1.3333333,0,0,-1.3333333,806.3672,124.3972)"
         clip-path="url(#clipPath22)" /><path
         id="path23"
         d="M 0,0 C 1.603,1.17 3.479,1.966 5.232,2.93 8.062,5.166 5.354,6.26 4.252,7.685 -0.318,6.589 -3.871,3.558 -7.813,1.279 -8.719,0.755 -8.646,0.116 -7.421,-0.293 -4.88,-1.141 -2.492,-1.82 0,0"
         style="fill:#23a0e1;fill-opacity:1;fill-rule:nonzero;stroke:none"
         transform="matrix(1.3333333,0,0,-1.3333333,781.50787,94.990133)"
         clip-path="url(#clipPath24)" /><path
         id="path25"
         d="m 0,0 c -1.169,-0.703 -2.339,-1.407 -3.508,-2.11 -0.423,-0.254 -0.856,-0.518 -1.147,-0.916 -1.007,-1.375 0.18,-4.081 1.663,-4.318 1.271,-0.202 4.306,2.47 5.257,3.223 0.861,0.683 7.311,8.7 7.086,8.734 C 8.072,4.809 6.845,4.117 5.737,3.45 3.825,2.3 1.912,1.15 0,0"
         style="fill:#23a0e1;fill-opacity:1;fill-rule:nonzero;stroke:none"
         transform="matrix(1.3333333,0,0,-1.3333333,798.71613,76.9492)"
         clip-path="url(#clipPath26)" /><path
         id="path27"
         d="M 0,0 C -3.342,-0.565 -6.587,-1.704 -9.539,-3.368 -9.892,-3.567 -10.25,-3.783 -10.481,-4.115 -11.922,-6.188 -8.66,-8.7 -6.745,-7.588 -2.804,-5.3 1.139,-3.011 5.08,-0.723 5.499,-0.48 5.982,-0.002 5.712,0.399 3.801,0.455 1.885,0.319 0,0"
         style="fill:#23a0e1;fill-opacity:1;fill-rule:nonzero;stroke:none"
         transform="matrix(1.3333333,0,0,-1.3333333,824.95187,108.6224)"
         clip-path="url(#clipPath28)" /><path
         id="path29"
         d="M 0,0 C 0.095,0.012 0.186,0.027 0.272,0.044 1.592,0.302 1.967,1.095 1.601,2.512 1.125,4.354 0.816,6.239 0.436,8.105 -1.588,14.207 -5.22,19.256 -9.775,23.701 c -1.361,0.208 -2.111,2.758 -3.482,1.627 -1.409,-1.161 -2.612,-2.548 -3.715,-4.023 -0.612,-0.82 -1.196,-1.665 -1.761,-2.521 -0.206,-0.312 -0.412,-0.625 -0.615,-0.939 -0.532,-0.82 0.268,-1.498 0.697,-2.158 1.698,-2.619 3.656,-5.079 4.872,-7.992 0.01,-0.015 0.021,-0.031 0.031,-0.047 0.476,-0.738 0.998,-1.452 1.413,-2.224 0.663,-1.233 1.21,-2.249 1.704,-3.085 2.368,-4.007 3.495,-3.787 10.042,-2.468 C -0.392,-0.089 -0.198,-0.026 0,0"
         style="fill:#23a0e1;fill-opacity:1;fill-rule:nonzero;stroke:none"
         transform="matrix(1.3333333,0,0,-1.3333333,836.56507,102.89253)"
         clip-path="url(#clipPath30)" /></g></g></svg>
