<svg width="25" height="28" viewBox="0 0 25 28" fill="none" xmlns="http://www.w3.org/2000/svg">
<path d="M17.5104 2.08334C17.5104 1.76287 17.6377 1.45553 17.8643 1.22892C18.0909 1.00231 18.3982 0.875008 18.7187 0.875008H23.25C23.5704 0.875008 23.8778 1.00231 24.1044 1.22892C24.331 1.45553 24.4583 1.76287 24.4583 2.08334V8.12501C24.4583 8.44548 24.331 8.75282 24.1044 8.97943C23.8778 9.20603 23.5704 9.33334 23.25 9.33334H22.0416V26.5521C22.0416 26.7924 21.9461 27.023 21.7762 27.1929C21.6062 27.3629 21.3757 27.4583 21.1354 27.4583C20.895 27.4583 20.6645 27.3629 20.4946 27.1929C20.3246 27.023 20.2291 26.7924 20.2291 26.5521V9.33334H18.7187C18.3982 9.33334 18.0909 9.20603 17.8643 8.97943C17.6377 8.75282 17.5104 8.44548 17.5104 8.12501V2.08334ZM15.7583 3.29167C15.942 3.29167 16.1232 3.30416 16.302 3.32913V5.17667C16.1245 5.13006 15.9418 5.10611 15.7583 5.10538H6.57617C6.10446 5.10534 5.64629 5.26303 5.27451 5.55335C4.90273 5.84368 4.63871 6.24998 4.52442 6.70763L3.56742 10.5417H19.0208V12.3542H3.01038C2.77002 12.3542 2.53952 12.4497 2.36956 12.6196C2.19961 12.7896 2.10413 13.0201 2.10413 13.2604V20.2083H19.0208V22.0208H17.8113L17.8125 23.5276C17.8125 23.6944 17.9478 23.8297 18.1145 23.8297H19.0208V25.6422H18.1145C17.5537 25.6422 17.0159 25.4194 16.6193 25.0229C16.2227 24.6263 16 24.0885 16 23.5276L15.9988 22.0208H6.33813V23.5276C6.33813 24.0885 6.11534 24.6263 5.71878 25.0229C5.32222 25.4194 4.78437 25.6422 4.22354 25.6422H2.40621C1.84539 25.6422 1.30753 25.4194 0.910973 25.0229C0.514412 24.6263 0.291626 24.0885 0.291626 23.5276V13.2604C0.291626 12.2756 0.814834 11.4129 1.59904 10.9368L1.84917 9.93751H1.19788C0.978881 9.9375 0.767296 9.85819 0.602251 9.71425C0.437207 9.57031 0.329868 9.37147 0.300084 9.15451L0.291626 9.03126C0.291635 8.81226 0.370944 8.60068 0.514886 8.43563C0.658828 8.27059 0.857665 8.16325 1.07463 8.13347L1.19788 8.12501H2.30108L2.7675 6.26659C2.97986 5.41688 3.47018 4.66254 4.1605 4.12351C4.85082 3.58448 5.70153 3.29168 6.57738 3.29167H15.7583ZM4.52442 22.0208H2.10292L2.10413 23.5276C2.10413 23.6944 2.23946 23.8297 2.40621 23.8297H4.22354C4.30366 23.8297 4.3805 23.7979 4.43715 23.7412C4.4938 23.6846 4.52563 23.6077 4.52563 23.5276L4.52442 22.0208ZM9.04963 16.5833H13.2812C13.5107 16.5837 13.7315 16.6712 13.8991 16.828C14.0666 16.9849 14.1684 17.1994 14.1839 17.4284C14.1994 17.6574 14.1274 17.8837 13.9825 18.0617C13.8376 18.2397 13.6306 18.3561 13.4033 18.3874L13.2812 18.3958H9.04963C8.82001 18.3958 8.59899 18.3085 8.43121 18.1518C8.26343 17.995 8.16141 17.7804 8.14576 17.5514C8.13011 17.3223 8.202 17.0958 8.3469 16.9177C8.4918 16.7396 8.69891 16.6231 8.92638 16.5918L9.04963 16.5833ZM17.2083 14.1667C17.5288 14.1667 17.8361 14.294 18.0627 14.5206C18.2893 14.7472 18.4166 15.0545 18.4166 15.375C18.4166 15.6955 18.2893 16.0028 18.0627 16.2294C17.8361 16.456 17.5288 16.5833 17.2083 16.5833C16.8878 16.5833 16.5805 16.456 16.3539 16.2294C16.1273 16.0028 16 15.6955 16 15.375C16 15.0545 16.1273 14.7472 16.3539 14.5206C16.5805 14.294 16.8878 14.1667 17.2083 14.1667ZM5.12496 14.1667C5.44543 14.1667 5.75277 14.294 5.97938 14.5206C6.20599 14.7472 6.33329 15.0545 6.33329 15.375C6.33329 15.6955 6.20599 16.0028 5.97938 16.2294C5.75277 16.456 5.44543 16.5833 5.12496 16.5833C4.80449 16.5833 4.49715 16.456 4.27054 16.2294C4.04393 16.0028 3.91663 15.6955 3.91663 15.375C3.91663 15.0545 4.04393 14.7472 4.27054 14.5206C4.49715 14.294 4.80449 14.1667 5.12496 14.1667Z" fill="white"/>
</svg>
